# xmcd CD database file
#
# Track frame offsets:
#	150
#	8325
#	30242
#	55332
#	112920
#	128837
#	155260
#	188015
#	227995
#	240630
#	285565
#
# Disc length: 4249 seconds
#
# Revision: 0
# Processed by: cddbd v1.5.2PL0 Copyright (c) Steve Scherf et al.
# Submitted via: CDex 1.70beta2
#
DISCID=7c10970b
DTITLE=Miles Davis - Live Around The World
DYEAR=1988
DGENRE=Jazz
TTITLE0=In A Silent Way
TTITLE1=Intruder
TTITLE2=New Blues
TTITLE3=Human nature
TTITLE4=Mr. Pastorius
TTITLE5=Amandla
TTITLE6=Wrinkle
TTITLE7=Tutu
TTITLE8=Full Nelson
TTITLE9=Time After Time
TTITLE10=Hannibal
EXTD=YEAR: 1988
EXTT0=
EXTT1=
EXTT2=
EXTT3=
EXTT4=
EXTT5=
EXTT6=
EXTT7=
EXTT8=
EXTT9=
EXTT10=
PLAYORDER=
